<?xml version="1.0" encoding="utf-8"?>
<!DOCTYPE svg PUBLIC "-//W3C//DTD SVG 1.1//EN" "http://www.w3.org/Graphics/SVG/1.1/DTD/svg11.dtd">
<svg version="1.1" xmlns="http://www.w3.org/2000/svg" xmlns:xlink="http://www.w3.org/1999/xlink" width="100%" height="100%" viewBox="-40 -1040 2000 2000">
 <title>Halton sequence 2 3</title>
 <desc>Illustration of the first 8 points of the 2,3 Halton sequence by CMG Lee.</desc>
 <defs>
  <filter id="filter_blur"><feGaussianBlur stdDeviation="4"/></filter>
  <radialGradient id="grad_sphere" cx="50%" cy="50%" r="50%" fx="50%" fy="90%">
   <stop offset="0%"  stop-color="#000000" stop-opacity="0"/>
   <stop offset="99%" stop-color="#000000" stop-opacity="0.3"/>
  </radialGradient>
  <linearGradient id="grad_highlight" x1="0%" y1="0%" x2="0%" y2="100%">
   <stop offset="10%" stop-color="#ffffff" stop-opacity="0.9"/>
   <stop offset="99%" stop-color="#ffffff" stop-opacity="0"/>
  </linearGradient>
  <g id="orb" stroke="none">
   <circle  cx="0" cy="0" r="100"/>
   <circle  cx="0" cy="0" r="100" fill="url(#grad_sphere)"/>
   <ellipse cx="0" cy="-45" rx="70" ry="50" fill="url(#grad_highlight)" filter="url(#filter_blur)"/>
  </g>
  <g id="dot"><use xlink:href="#orb" transform="scale(0.3)" fill-opacity="1"/></g>

  <path id="grid_1" d="M 0,0 V -1000"/>
  <g id="grid_5">
   <use xlink:href="#grid_1" stroke-opacity="0.5"/>
   <use xlink:href="#grid_1" transform="translate(100,0)"/>
   <use xlink:href="#grid_1" transform="translate(200,0)"/>
   <use xlink:href="#grid_1" transform="translate(300,0)"/>
   <use xlink:href="#grid_1" transform="translate(400,0)"/>
  </g>
  <g id="grid_10">
   <use xlink:href="#grid_5"/>
   <use xlink:href="#grid_5" transform="translate(500,0)"/>
  </g>
  <g id="grid">
   <rect x="0" y="-1000" width="1000" height="1000" fill="none"/>
   <g stroke-opacity="0.25">
    <use xlink:href="#grid_10"/>
    <use xlink:href="#grid_10" transform="rotate(90) scale(-1,1)"/>
   </g>
  </g>

  <path id="tick" d="M 20,0 H -20"/>
  <g id="line_1">
   <use xlink:href="#grid_1"/>
   <use xlink:href="#tick"/>
   <use xlink:href="#tick" transform="translate(0,-1000)"/>
  </g>
  <g id="line_3">
   <use xlink:href="#line_1"/>
   <use xlink:href="#tick" transform="translate(0,-333)"/>
   <use xlink:href="#tick" transform="translate(0,-667)"/>
  </g>
  <g id="line_9">
   <use xlink:href="#line_3"/>
   <use xlink:href="#tick" transform="translate(0,-111)"/>
   <use xlink:href="#tick" transform="translate(0,-222)"/>
   <use xlink:href="#tick" transform="translate(0,-444)"/>
   <use xlink:href="#tick" transform="translate(0,-556)"/>
   <use xlink:href="#tick" transform="translate(0,-778)"/>
   <use xlink:href="#tick" transform="translate(0,-889)"/>
  </g>
  <g id="line_2">
   <use xlink:href="#line_1"/>
   <use xlink:href="#tick" transform="translate(0,-500)"/>
  </g>
  <g id="line_4">
   <use xlink:href="#line_2"/>
   <use xlink:href="#tick" transform="translate(0,-250)"/>
   <use xlink:href="#tick" transform="translate(0,-750)"/>
  </g>
  <g id="line_8">
   <use xlink:href="#line_4"/>
   <use xlink:href="#tick" transform="translate(0,-125)"/>
   <use xlink:href="#tick" transform="translate(0,-375)"/>
   <use xlink:href="#tick" transform="translate(0,-625)"/>
   <use xlink:href="#tick" transform="translate(0,-875)"/>
  </g>
  <g id="line_16">
   <use xlink:href="#line_8"/>
   <use xlink:href="#tick" transform="translate(0, -63)"/>
   <use xlink:href="#tick" transform="translate(0,-188)"/>
   <use xlink:href="#tick" transform="translate(0,-313)"/>
   <use xlink:href="#tick" transform="translate(0,-438)"/>
   <use xlink:href="#tick" transform="translate(0,-563)"/>
   <use xlink:href="#tick" transform="translate(0,-688)"/>
   <use xlink:href="#tick" transform="translate(0,-813)"/>
   <use xlink:href="#tick" transform="translate(0,-938)"/>
  </g>
 </defs>
 <circle cx="0" cy="0" r="99999" fill="#ffffff"/>
 <g font-family="sans-serif" font-size="60" letter-spacing="-3" text-anchor="middle" stroke-width="2" stroke-linejoin="round" stroke-linecap="round" stroke="none" fill="none">
  <path d="M 500,-333 A 300,-300 0 0 1 250,-667 A 500,-500 0 0 1 750,-111 A 450,-450 0 0 1 125,-444 A 350,-350 0 0 1 625,-778 A 500,-500 0 0 0 375,-222 A 500,-500 0 0 0 875,-556 A 600,-600 0 0 0 63,-889 h 100 m -100,-0 l 80,-60" stroke="#eeeeee" stroke-width="20"/>
  <g fill="#000000">
   <text x="1020" y="120" dy="0.7ex" font-style="italic">x</text>
   <text x="1000" y="50" dy="0.7ex">1</text>
   <text x="0" y="50" dy="0.7ex">0</text>
   <!-- <text transform="rotate(45)" x="0" y="50" dy="0.7ex">0</text> -->
   <text transform="rotate(-90)" x="0" y="1050" dy="0.7ex">0</text>
   <text transform="rotate(-90)" x="1000" y="1050" dy="0.7ex">1</text>
   <text transform="rotate(-90)" x="-30" y="1110" dy="0.7ex" font-style="italic">y</text>
   <text x="1080" y="200" dy="0.7ex">1/2</text>
   <text x="1080" y="300" dy="0.7ex">1/4</text>
   <text x="1080" y="400" dy="0.7ex">3/4</text>
   <text x="1080" y="500" dy="0.7ex">1/8</text>
   <text x="1080" y="600" dy="0.7ex">5/8</text>
   <text x="1080" y="700" dy="0.7ex">3/8</text>
   <text x="1080" y="800" dy="0.7ex">7/8</text>
   <text x="1080" y="900" dy="0.7ex">1/16</text>
   <text transform="rotate(-90)" x="-80" y="1200" dy="0.7ex">1/3</text>
   <text transform="rotate(-90)" x="-80" y="1300" dy="0.7ex">2/3</text>
   <text transform="rotate(-90)" x="-80" y="1400" dy="0.7ex">1/9</text>
   <text transform="rotate(-90)" x="-80" y="1500" dy="0.7ex">4/9</text>
   <text transform="rotate(-90)" x="-80" y="1600" dy="0.7ex">7/9</text>
   <text transform="rotate(-90)" x="-80" y="1700" dy="0.7ex">2/9</text>
   <text transform="rotate(-90)" x="-80" y="1800" dy="0.7ex">5/9</text>
   <text transform="rotate(-90)" x="-80" y="1900" dy="0.7ex">8/9</text>
   <g transform="translate(1075,65) rotate(-45)" font-weight="bold">
    <text x="0" y="200" dy="0.7ex"><tspan>T</tspan><tspan dx="-0.1ex" dy="0.5ex">1</tspan></text>
    <text x="0" y="300" dy="0.7ex"><tspan>T</tspan><tspan dx="-0.1ex" dy="0.5ex">2</tspan></text>
    <text x="0" y="400" dy="0.7ex"><tspan>T</tspan><tspan dx="-0.1ex" dy="0.5ex">3</tspan></text>
    <text x="0" y="500" dy="0.7ex"><tspan>T</tspan><tspan dx="-0.1ex" dy="0.5ex">4</tspan></text>
    <text x="0" y="600" dy="0.7ex"><tspan>T</tspan><tspan dx="-0.1ex" dy="0.5ex">5</tspan></text>
    <text x="0" y="700" dy="0.7ex"><tspan>T</tspan><tspan dx="-0.1ex" dy="0.5ex">6</tspan></text>
    <text x="0" y="800" dy="0.7ex"><tspan>T</tspan><tspan dx="-0.1ex" dy="0.5ex">7</tspan></text>
    <text x="0" y="900" dy="0.7ex"><tspan>T</tspan><tspan dx="-0.1ex" dy="0.5ex">8</tspan></text>
   </g>
  </g>
  <g stroke-width="5" stroke-dasharray="40,30" fill-opacity="0">
   <path d="M 1400,-1000 l -300,1000" stroke="#ff6600"/>
   <path d="M 1667,-1000 l -300,1000" stroke="#00cc00"/>
   <path d="M 1933,-1000 l -300,1000" stroke="#cc66ff"/>
   <path d="M    0,  100 l 1000, 200" stroke="#ff6666"/>
   <path d="M    0,  250 l 1000, 200" stroke="#ff9900"/>
   <path d="M    0,  475 l 1000, 200" stroke="#00cc99"/>
   <path d="M    0,  625 l 1000, 200" stroke="#9999ff"/>
   <path d="M    0,  888 l 1000, 200" stroke="#cccccc"/>
  </g>
  <g stroke-width="10" stroke-dasharray="1,20" fill-opacity="0">
   <g stroke="#ff0000" fill="#ff0000"><path d="M 1200,-333 H 500 V 200"/><use xlink:href="#dot" transform="translate(1200,-333)"/><use xlink:href="#dot" transform="translate(500,200)"/><use xlink:href="#dot" transform="translate(500,-333)"/></g>
   <g stroke="#dd8800" fill="#dd8800"><path d="M 1300,-667 H 250 V 300"/><use xlink:href="#dot" transform="translate(1300,-667)"/><use xlink:href="#dot" transform="translate(250,300)"/><use xlink:href="#dot" transform="translate(250,-667)"/></g>
   <g stroke="#cc9900" fill="#cc9900"><path d="M 1400,-111 H 750 V 400"/><use xlink:href="#dot" transform="translate(1400,-111)"/><use xlink:href="#dot" transform="translate(750,400)"/><use xlink:href="#dot" transform="translate(750,-111)"/></g>
   <g stroke="#00aa00" fill="#00aa00"><path d="M 1500,-444 H 125 V 500"/><use xlink:href="#dot" transform="translate(1500,-444)"/><use xlink:href="#dot" transform="translate(125,500)"/><use xlink:href="#dot" transform="translate(125,-444)"/></g>
   <g stroke="#009999" fill="#009999"><path d="M 1600,-778 H 625 V 600"/><use xlink:href="#dot" transform="translate(1600,-778)"/><use xlink:href="#dot" transform="translate(625,600)"/><use xlink:href="#dot" transform="translate(625,-778)"/></g>
   <g stroke="#0000ff" fill="#0000ff"><path d="M 1700,-222 H 375 V 700"/><use xlink:href="#dot" transform="translate(1700,-222)"/><use xlink:href="#dot" transform="translate(375,700)"/><use xlink:href="#dot" transform="translate(375,-222)"/></g>
   <g stroke="#9900ff" fill="#9900ff"><path d="M 1800,-556 H 875 V 800"/><use xlink:href="#dot" transform="translate(1800,-556)"/><use xlink:href="#dot" transform="translate(875,800)"/><use xlink:href="#dot" transform="translate(875,-556)"/></g>
   <g stroke="#888888" fill="#888888"><path d="M 1900,-889 H 63  V 900"/><use xlink:href="#dot" transform="translate(1900,-889)"/><use xlink:href="#dot" transform="translate(63, 900)"/><use xlink:href="#dot" transform="translate(63, -889)"/></g>
  </g>
  <g stroke="#000000">
   <use xlink:href="#grid"/>
   <use xlink:href="#line_2"  transform="translate(0,200) rotate(90) scale(-1,1)"/>
   <use xlink:href="#line_4"  transform="translate(0,300) rotate(90) scale(-1,1)"/>
   <use xlink:href="#line_4"  transform="translate(0,400) rotate(90) scale(-1,1)"/>
   <use xlink:href="#line_8"  transform="translate(0,500) rotate(90) scale(-1,1)"/>
   <use xlink:href="#line_8"  transform="translate(0,600) rotate(90) scale(-1,1)"/>
   <use xlink:href="#line_8"  transform="translate(0,700) rotate(90) scale(-1,1)"/>
   <use xlink:href="#line_8"  transform="translate(0,800) rotate(90) scale(-1,1)"/>
   <use xlink:href="#line_16" transform="translate(0,900) rotate(90) scale(-1,1)"/>
   <use xlink:href="#line_3"  transform="translate(1200,0)"/>
   <use xlink:href="#line_3"  transform="translate(1300,0)"/>
   <use xlink:href="#line_9"  transform="translate(1400,0)"/>
   <use xlink:href="#line_9"  transform="translate(1500,0)"/>
   <use xlink:href="#line_9"  transform="translate(1600,0)"/>
   <use xlink:href="#line_9"  transform="translate(1700,0)"/>
   <use xlink:href="#line_9"  transform="translate(1800,0)"/>
   <use xlink:href="#line_9"  transform="translate(1900,0)"/>
   <path d="M 1200,150 l -20,20 m 20,-20 l 20,20 m -20,-20 A  50, 50 0 0 1 1150,200 l 20,-20 m -20,20 l 20,20"/>
   <path d="M 1300,150 l -20,20 m 20,-20 l 20,20 m -20,-20 A 150,150 0 0 1 1150,300 l 20,-20 m -20,20 l 20,20"/>
   <path d="M 1400,150 l -20,20 m 20,-20 l 20,20 m -20,-20 A 250,250 0 0 1 1150,400 l 20,-20 m -20,20 l 20,20"/>
   <path d="M 1500,150 l -20,20 m 20,-20 l 20,20 m -20,-20 A 350,350 0 0 1 1150,500 l 20,-20 m -20,20 l 20,20"/>
   <path d="M 1600,150 l -20,20 m 20,-20 l 20,20 m -20,-20 A 450,450 0 0 1 1150,600 l 20,-20 m -20,20 l 20,20"/>
   <path d="M 1700,150 l -20,20 m 20,-20 l 20,20 m -20,-20 A 550,550 0 0 1 1150,700 l 20,-20 m -20,20 l 20,20"/>
   <path d="M 1800,150 l -20,20 m 20,-20 l 20,20 m -20,-20 A 650,650 0 0 1 1150,800 l 20,-20 m -20,20 l 20,20"/>
   <path d="M 1900,150 l -20,20 m 20,-20 l 20,20 m -20,-20 A 750,750 0 0 1 1150,900 l 20,-20 m -20,20 l 20,20"/>
  </g>
 </g>
</svg>
